<svg xmlns="http://www.w3.org/2000/svg" viewBox="0 0 1200 600">
    <g fill="currentColor">
        <path d="M205.26 322.56c-4.49 0-8.69-1.71-12.6-5.12-3.91-3.42-7.32-8.37-10.22-14.87-2.85-6.36-5.09-14.22-6.73-23.6-1.64-9.37-2.46-19.67-2.46-30.9s.83-21.5 2.48-31 3.98-17.74 6.97-24.71c2.93-6.83 6.46-12.13 10.57-15.88s8.51-5.63 13.2-5.63c3.39 0 6.48.98 9.27 2.94a33.39 33.39 0 0 1 7.07 6.59l2.67-5.57h3.75l.39 52.5h-3.8c-2.15-16.05-4.74-27.83-7.75-35.35-3.02-7.52-6.69-11.28-11.03-11.28-5.4 0-9.51 5.6-12.32 16.8-2.81 11.2-4.22 26.92-4.22 47.15 0 11.44.48 21.2 1.44 29.29s2.22 14.6 3.77 19.54c1.67 5.14 3.63 8.92 5.9 11.32s4.78 3.6 7.54 3.6c4.02 0 7.6-2.57 10.75-7.7 3.15-5.13 6.01-12.91 8.6-23.31l3.71 5.27a139.24 139.24 0 0 1-4.23 15.96 59.45 59.45 0 0 1-5.48 12.11 31.27 31.27 0 0 1-7.53 8.72 15.62 15.62 0 0 1-9.73 3.14Zm101.37-3.95h-23.49a1243.12 1243.12 0 0 0-10.11-34.87 878.6 878.6 0 0 0-10.02-30h-2.37v43.68c0 2.43.19 4.49.58 6.18a9 9 0 0 0 2.22 4.26 9.9 9.9 0 0 0 2.57 1.67c1.16.58 2.16.96 3 1.17v7.91h-32.65v-7.91c.83-.2 1.93-.49 3.3-.86a6.9 6.9 0 0 0 2.91-1.37 8.15 8.15 0 0 0 2.2-4.1c.37-1.66.56-3.77.56-6.33V196.59c0-2.43-.16-4.46-.47-6.08a8.2 8.2 0 0 0-2.29-4.26 12.78 12.78 0 0 0-3.26-2.23 36.24 36.24 0 0 0-2.96-1.32v-7.91h34.34c7.68 0 13.51 2.82 17.49 8.46 3.98 5.64 5.97 14.17 5.97 25.59 0 10.07-1.23 18.16-3.69 24.27-2.46 6.12-6.21 10.9-11.24 14.34a6665 6665 0 0 0 6.84 20.68c2.6 7.84 5.31 15.85 8.13 24.02.89 2.64 2.11 5.86 3.65 9.68 1.54 3.82 2.9 6.17 4.08 7.04.66.47 1.5.88 2.52 1.22 1.02.34 1.75.54 2.18.61v7.91Zm-29.37-106.93c0-9.59-1.14-16.6-3.43-21.03-2.29-4.42-5.54-6.64-9.77-6.64h-3.41v60.2h3.28c4.23 0 7.51-2.6 9.83-7.8 2.33-5.2 3.49-13.44 3.49-24.73Z"/>
        <path d="M373.23 318.61h-33.34v-7.91c1.55-.27 3.37-.93 5.47-1.98 2.09-1.05 3.14-2.35 3.14-3.9 0-.54-.02-1.15-.06-1.82-.04-.67-.17-1.59-.37-2.74l-5.22-29.8h-21.13a983.09 983.09 0 0 0-3.13 19.66c-.54 3.78-.87 6.52-.97 8.21-.1 1.69-.15 2.87-.15 3.55 0 2.16.7 4 2.09 5.52 1.39 1.52 3.71 2.62 6.96 3.29v7.91h-25.1v-7.91c.95-.13 2.02-.49 3.21-1.06a7.04 7.04 0 0 0 2.83-2.38 22.72 22.72 0 0 0 3-5.98 52.9 52.9 0 0 0 2.05-8.41l10.03-57.06c3.35-19.05 7.05-40.07 11.11-63.04h8.63c5.64 32.57 10.05 58.31 13.24 77.23 3.19 18.92 5.91 34.6 8.15 47.03.37 2.03.85 3.87 1.42 5.52a18.28 18.28 0 0 0 2.46 4.71 8.02 8.02 0 0 0 2.8 2.43c1.06.54 2.03.88 2.89 1.01v7.91Zm-32.16-58.17-8.86-51.99-8.73 51.99h17.59Zm87.72-47.23h-3.36c-.83-5.59-2.3-11.53-4.41-17.83-2.11-6.29-4.11-9.75-6.01-10.35-.86-.27-2.01-.5-3.45-.71s-2.76-.3-3.96-.3h-9.52v56.35h6.08a7.5 7.5 0 0 0 4.49-1.37c1.26-.91 2.39-2.55 3.36-4.92.72-1.69 1.42-4.51 2.09-8.46a88.74 88.74 0 0 0 1.23-10.19h3.28v60.51h-3.28a83.2 83.2 0 0 0-1.34-11.1c-.78-4.36-1.44-7.25-1.98-8.67-.83-2.16-1.9-3.77-3.19-4.81a7.16 7.16 0 0 0-4.66-1.57h-6.08v47.64c0 2.43.19 4.51.58 6.23a8.39 8.39 0 0 0 2.22 4.21c.63.61 1.5 1.17 2.61 1.67 1.11.51 2.21.9 3.3 1.17v7.91h-33v-7.91c.83-.2 1.94-.49 3.32-.86a6.63 6.63 0 0 0 2.89-1.37 7.59 7.59 0 0 0 2.16-3.95c.4-1.69.6-3.85.6-6.49V196.59c0-2.3-.18-4.31-.54-6.03a8.54 8.54 0 0 0-2.22-4.31 12.68 12.68 0 0 0-3.19-2.23 20.8 20.8 0 0 0-3.02-1.32v-7.91h55v38.41Zm61.21 2.73h-3.36a158.06 158.06 0 0 0-4.28-19.76c-1.96-7.03-3.78-10.81-5.44-11.35-.92-.27-2.05-.51-3.4-.71-1.35-.2-2.51-.3-3.49-.3h-2.02v112.81c0 2.43.19 4.58.56 6.44a8.32 8.32 0 0 0 2.2 4.41c.66.61 1.69 1.23 3.08 1.88 1.39.64 2.58 1.1 3.56 1.37v7.91h-34.12v-7.91l3.52-.86c1.51-.37 2.54-.83 3.08-1.37a8.1 8.1 0 0 0 2.24-4.36c.37-1.82.56-3.99.56-6.49V183.83h-2.02c-.98 0-2.14.1-3.49.3s-2.48.44-3.4.71c-1.67.54-3.48 4.32-5.44 11.35a158.83 158.83 0 0 0-4.28 19.76h-3.36V174.8h59.31v41.15Zm43.44 2.94c0 4.32-.74 8.11-2.23 11.35-1.48 3.24-3.24 4.87-5.25 4.87-3.17 0-5.61-2.47-7.31-7.4-1.7-4.93-2.55-11.76-2.55-20.47a72.9 72.9 0 0 1 4.39-24.53c2.93-8.24 6.45-14.49 10.57-18.75l1.9 7.2a41.7 41.7 0 0 0-7.67 12.97c-1.85 4.93-2.92 10.91-3.21 17.94h2.42c1.79 0 3.25.47 4.37 1.42s2.04 2.26 2.73 3.95a22.7 22.7 0 0 1 1.41 5.37c.27 1.96.41 3.99.41 6.08Zm21.26 0c0 4.32-.74 8.11-2.23 11.35-1.48 3.24-3.24 4.87-5.25 4.87-3.17 0-5.61-2.47-7.31-7.4-1.7-4.93-2.55-11.76-2.55-20.47a72.9 72.9 0 0 1 4.39-24.53c2.93-8.24 6.45-14.49 10.57-18.75l1.9 7.2a41.7 41.7 0 0 0-7.67 12.97c-1.85 4.93-2.92 10.91-3.21 17.94h2.42c1.79 0 3.25.47 4.37 1.42s2.04 2.26 2.73 3.95a22.7 22.7 0 0 1 1.41 5.37c.27 1.96.41 3.99.41 6.08Zm77.43-36.18c-.81.2-1.96.57-3.45 1.11-1.5.54-2.85 1.86-4.05 3.95-1.06 1.82-1.82 4.95-2.26 9.38-.45 4.43-.67 10.93-.67 19.51v102.77h-7.68l-38.13-111.18v67.5c0 8.38.24 14.75.71 19.1.47 4.36 1.24 7.55 2.31 9.58.78 1.49 2.01 2.8 3.71 3.95a23.63 23.63 0 0 0 4.05 2.33v7.91h-26.31v-7.91c1.12-.2 2.41-.69 3.86-1.47a9.6 9.6 0 0 0 3.65-3.6c1.12-1.96 1.89-4.92 2.31-8.87.42-3.95.62-10.59.62-19.92v-68.11c0-3.38-.22-6.57-.67-9.58a30.51 30.51 0 0 0-2.09-7.75 17.72 17.72 0 0 0-3.47-5.42 14.64 14.64 0 0 0-4.46-3.09v-8.11h23.04l33.47 97.26v-54.4c0-8.64-.25-15.08-.73-19.3-.49-4.22-1.27-7.35-2.33-9.37a11.27 11.27 0 0 0-3.71-4 22.7 22.7 0 0 0-3.97-2.28v-7.91h26.27v7.91Zm5.52 44.8a41.7 41.7 0 0 0 7.67-12.97c1.85-4.93 2.92-10.91 3.2-17.94h-2.42a6.53 6.53 0 0 1-4.37-1.42 9.94 9.94 0 0 1-2.73-3.95 22.7 22.7 0 0 1-1.41-5.37 44.55 44.55 0 0 1-.41-6.08c0-4.32.74-8.11 2.23-11.35 1.48-3.24 3.24-4.86 5.25-4.86 3.17 0 5.61 2.47 7.31 7.4 1.7 4.93 2.55 11.76 2.55 20.47a72.9 72.9 0 0 1-4.39 24.53c-2.93 8.24-6.45 14.49-10.57 18.75l-1.9-7.2Zm21.26 0a41.7 41.7 0 0 0 7.67-12.97c1.85-4.93 2.92-10.91 3.2-17.94h-2.42a6.53 6.53 0 0 1-4.37-1.42 9.94 9.94 0 0 1-2.73-3.95 22.7 22.7 0 0 1-1.41-5.37 44.55 44.55 0 0 1-.41-6.08c0-4.32.74-8.11 2.23-11.35 1.48-3.24 3.24-4.86 5.25-4.86 3.17 0 5.61 2.47 7.31 7.4 1.7 4.93 2.55 11.76 2.55 20.47a72.9 72.9 0 0 1-4.39 24.53c-2.93 8.24-6.45 14.49-10.57 18.75l-1.9-7.2Zm164.91 91.11h-33.08v-7.91l3.15-.61c1.38-.27 2.33-.67 2.85-1.22a7.99 7.99 0 0 0 2.2-4c.4-1.66.6-3.77.6-6.33v-49.56H773.4v48.45c0 2.3.21 4.36.62 6.18a8.75 8.75 0 0 0 2.13 4.26c.55.54 1.48 1.11 2.8 1.72a13 13 0 0 0 3.23 1.11v7.91H749.1v-7.91c.72-.07 1.78-.29 3.17-.66a7.87 7.87 0 0 0 3.04-1.37c1.04-.88 1.75-2.21 2.16-4 .4-1.79.6-3.9.6-6.33V196.58c0-2.36-.18-4.36-.54-5.98a9.12 9.12 0 0 0-2.22-4.26 12.4 12.4 0 0 0-3.28-2.38 14.48 14.48 0 0 0-2.93-1.27v-7.91h33.08v7.91c-.89.14-1.96.47-3.19 1.01a16.25 16.25 0 0 0-2.85 1.52c-1.12.88-1.86 2.28-2.22 4.21a33.38 33.38 0 0 0-.54 6.13v42.97h26.14v-41.96c0-2.36-.19-4.36-.56-5.98a9.24 9.24 0 0 0-2.24-4.26c-.75-.81-1.75-1.57-3-2.28s-2.25-1.17-3-1.37v-7.91h33.08v7.91a15.2 15.2 0 0 0-6.22 2.53c-1.09.88-1.83 2.26-2.2 4.16a32.19 32.19 0 0 0-.56 6.18v101.86c0 2.43.19 4.49.56 6.18a8.8 8.8 0 0 0 2.2 4.26 9.3 9.3 0 0 0 3 1.82c1.31.54 2.38.88 3.21 1.01v7.91Zm62.5-127.8c3.02 6.49 5.41 14.33 7.18 23.51 1.77 9.19 2.65 19.66 2.65 31.42 0 10.47-.75 20.44-2.24 29.9-1.5 9.46-3.65 17.6-6.47 24.43-2.96 7.09-6.44 12.62-10.44 16.57s-8.76 5.93-14.28 5.93c-4.46 0-8.67-1.72-12.64-5.17-3.97-3.45-7.46-8.45-10.48-15-2.99-6.42-5.36-14.22-7.12-23.41-1.75-9.19-2.63-19.42-2.63-30.71s.86-22.42 2.57-31.98c1.71-9.56 4.06-17.75 7.05-24.58 2.96-6.69 6.48-11.84 10.55-15.46 4.07-3.61 8.4-5.42 13-5.42s8.86 1.76 12.88 5.27c4.01 3.51 7.48 8.41 10.42 14.7Zm-11.08 102.94a159.47 159.47 0 0 0 2.8-20.91c.58-7.78.86-16.58.86-26.39 0-8.32-.25-16.43-.75-24.31-.5-7.88-1.36-14.91-2.57-21.06-1.24-6.16-2.88-11.1-4.92-14.82-2.04-3.72-4.59-5.58-7.63-5.58-5.21 0-9.16 5.8-11.86 17.41-2.7 11.61-4.05 28-4.05 49.18 0 9 .29 17.49.88 25.48.59 7.98 1.52 14.96 2.78 20.91 1.29 6.02 2.93 10.71 4.92 14.06 1.98 3.35 4.43 5.02 7.33 5.02s5.29-1.69 7.33-5.08c2.04-3.38 3.67-8.02 4.87-13.91Zm97.44-111.05c-.83.2-2.04.66-3.6 1.37a9 9 0 0 0-3.95 3.7c-1.09 1.69-1.86 4.73-2.31 9.12-.45 4.39-.67 10.98-.67 19.76v53.51c0 15.74-2.27 28.41-6.82 38.01-4.54 9.59-10.55 14.39-18.03 14.39-8.71 0-15.46-4.63-20.23-13.88-4.77-9.26-7.16-22.16-7.16-38.72v-73.58c0-2.36-.19-4.39-.58-6.08a11.16 11.16 0 0 0-2.22-4.56 8.58 8.58 0 0 0-2.76-2.13 17.11 17.11 0 0 0-2.67-1.11v-7.7h32.09v7.7a12.2 12.2 0 0 0-5.69 2.43c-1.09.81-1.83 2.16-2.2 4.05a33.4 33.4 0 0 0-.56 6.39v72.57c0 14.26 1.33 24.63 4.01 31.12 2.67 6.49 6.55 9.73 11.63 9.73s8.92-3.58 11.76-10.74 4.26-17.7 4.26-31.62v-48.75c0-8.65-.25-15.12-.75-19.41-.5-4.29-1.27-7.38-2.31-9.27a10.8 10.8 0 0 0-3.9-4.05 23.23 23.23 0 0 0-3.9-2.23v-7.91h26.57v7.91Zm28.81 139.86c-3.74 0-7.22-1.1-10.46-3.29a34.35 34.35 0 0 1-8.22-7.75l-2.98 7.09h-3.67l-.56-51.99h3.71a247.6 247.6 0 0 0 3.19 15.64 108.54 108.54 0 0 0 4.49 14.73c1.75 4.54 3.72 8.23 5.89 11.07 2.17 2.84 4.71 4.27 7.61 4.27 3.91 0 6.91-2.25 8.99-6.75s3.13-10.16 3.13-16.99c0-5.61-.88-10.33-2.65-14.15a26.08 26.08 0 0 0-8.22-9.91c-2.42-1.83-4.64-3.53-6.66-5.09s-3.93-3.16-5.72-4.79c-4.11-3.86-7.17-9.37-9.17-16.54s-3-15.19-3-24.05c0-5.62.52-11.01 1.55-16.19s2.54-9.83 4.53-13.95c1.9-3.85 4.33-7 7.29-9.44 2.96-2.44 6.18-3.65 9.66-3.65s6.57 1.11 9.53 3.34a35.8 35.8 0 0 1 6.99 6.69l2.63-6.08h3.75l.34 49.06h-3.71a361.37 361.37 0 0 0-3.04-16.2 109.03 109.03 0 0 0-3.69-13.77c-1.41-3.93-3.03-7.06-4.88-9.4-1.84-2.34-4-3.5-6.47-3.5-3.11 0-5.64 2.06-7.61 6.19-1.97 4.13-2.96 9.24-2.96 15.33 0 5.75.86 10.46 2.57 14.11a26.02 26.02 0 0 0 8 9.64 461.7 461.7 0 0 0 6.51 5.07 98.96 98.96 0 0 1 5.91 4.87c4.17 3.79 7.34 9.02 9.51 15.68s3.26 14.94 3.26 24.81c0 6.23-.62 12.25-1.85 18.07s-2.91 10.66-5 14.51c-2.3 4.26-4.96 7.54-7.98 9.84a16.95 16.95 0 0 1-10.57 3.45Zm85.93-111.08h-3.28a86.12 86.12 0 0 0-4.31-16.56c-2.04-5.59-4.07-8.89-6.08-9.9a8.8 8.8 0 0 0-3.6-.86 60.9 60.9 0 0 0-3.82-.15h-8.89v55.44h6.3c1.58 0 3.02-.44 4.31-1.32 1.29-.88 2.47-2.57 3.54-5.07.66-1.55 1.33-4.29 2.01-8.21.68-3.92 1.11-7.33 1.32-10.24h3.28v60h-3.28c-.17-2.84-.61-6.4-1.32-10.69-.71-4.29-1.37-7.25-2.01-8.87-.95-2.43-2.07-4.1-3.36-5.02a7.6 7.6 0 0 0-4.49-1.37h-6.3v41.45c0 4.32.14 7.75.41 10.29.27 2.53.78 4.48 1.53 5.83a5.14 5.14 0 0 0 2.96 2.53c1.25.41 2.96.61 5.11.61 1.01 0 2.21-.03 3.62-.1a14.59 14.59 0 0 0 7.1-2.13 6.08 6.08 0 0 0 2.35-2.94c1.38-3.31 2.93-8.36 4.66-15.15s2.86-11.87 3.41-15.25h3.15l-1.17 44.8h-57.41v-7.91c.8-.13 1.9-.41 3.28-.81a7.43 7.43 0 0 0 2.93-1.42 8.15 8.15 0 0 0 2.2-4.1c.37-1.66.56-3.77.56-6.33V196.58c0-2.43-.16-4.44-.47-6.03a8.74 8.74 0 0 0-2.29-4.31c-.75-.81-1.8-1.55-3.15-2.23a22.3 22.3 0 0 0-3.06-1.32v-7.91h54.26v36.69Z"/>
    </g>
    <path fill="currentColor" d="M302.1 463.44c-4.2 0-8.13-1.6-11.79-4.8-3.66-3.2-6.85-7.84-9.57-13.92-2.67-5.96-4.77-13.32-6.3-22.09-1.53-8.77-2.3-18.42-2.3-28.94s.77-20.13 2.32-29.03c1.55-8.9 3.72-16.61 6.52-23.14 2.75-6.4 6.04-11.35 9.9-14.87 3.85-3.52 7.97-5.27 12.36-5.27 3.18 0 6.07.92 8.68 2.75a31.37 31.37 0 0 1 6.62 6.17l2.5-5.22h3.51l.36 49.16h-3.55c-2.02-15.03-4.44-26.06-7.26-33.1-2.82-7.04-6.27-10.56-10.33-10.56-5.06 0-8.9 5.25-11.54 15.73-2.64 10.49-3.95 25.21-3.95 44.15 0 10.71.45 19.85 1.35 27.42s2.08 13.67 3.53 18.3c1.56 4.82 3.4 8.35 5.53 10.6 2.12 2.25 4.48 3.37 7.06 3.37 3.77 0 7.12-2.4 10.07-7.21 2.95-4.81 5.63-12.08 8.05-21.83l3.47 4.94a130.71 130.71 0 0 1-3.96 14.95 55.51 55.51 0 0 1-5.13 11.34 29.36 29.36 0 0 1-7.05 8.16 14.6 14.6 0 0 1-9.11 2.94Zm82.08-123.38c2.83 6.07 5.07 13.41 6.73 22.02 1.66 8.6 2.48 18.41 2.48 29.42 0 9.81-.7 19.14-2.1 28-1.4 8.86-3.42 16.48-6.06 22.87-2.77 6.64-6.03 11.82-9.77 15.52a18.36 18.36 0 0 1-13.37 5.55c-4.17 0-8.12-1.61-11.83-4.84s-6.99-7.91-9.81-14.05c-2.8-6.01-5.02-13.32-6.66-21.92-1.64-8.6-2.46-18.19-2.46-28.76s.8-20.99 2.4-29.94c1.6-8.95 3.8-16.62 6.6-23.01 2.77-6.26 6.06-11.09 9.88-14.47 3.81-3.38 7.87-5.08 12.18-5.08s8.3 1.65 12.06 4.93c3.76 3.29 7.01 7.88 9.75 13.76Zm-10.39 96.4a149.65 149.65 0 0 0 2.63-19.58c.54-7.29.81-15.53.81-24.71 0-7.79-.24-15.38-.71-22.76a154.25 154.25 0 0 0-2.4-19.72c-1.16-5.77-2.69-10.39-4.6-13.88-1.91-3.49-4.29-5.23-7.15-5.23-4.87 0-8.58 5.44-11.11 16.3-2.53 10.87-3.8 26.22-3.8 46.05 0 8.43.28 16.38.83 23.86.55 7.48 1.42 14 2.61 19.58 1.21 5.64 2.75 10.03 4.6 13.16 1.86 3.14 4.15 4.71 6.87 4.71s4.95-1.58 6.87-4.75c1.91-3.17 3.43-7.51 4.56-13.02Zm91.09-103.99c-.75.19-1.83.54-3.23 1.04-1.4.51-2.67 1.74-3.8 3.7-1 1.71-1.7 4.64-2.12 8.78-.42 4.14-.63 10.24-.63 18.27v96.23h-7.19L412.2 356.38v63.21c0 7.85.22 13.81.67 17.89s1.16 7.07 2.16 8.97a10.27 10.27 0 0 0 3.47 3.7 21.69 21.69 0 0 0 3.8 2.18v7.4h-24.64v-7.4c1.05-.19 2.25-.65 3.62-1.38a8.88 8.88 0 0 0 3.41-3.37c1.05-1.83 1.77-4.6 2.16-8.3.39-3.7.59-9.92.59-18.65v-63.77c0-3.16-.21-6.15-.63-8.97a28.7 28.7 0 0 0-1.96-7.26 16.73 16.73 0 0 0-3.25-5.08 13.74 13.74 0 0 0-4.18-2.89v-7.59h21.57l31.34 91.07V365.2c0-8.09-.23-14.12-.69-18.07-.46-3.95-1.19-6.88-2.18-8.78-.78-1.45-1.94-2.7-3.47-3.75s-2.77-1.76-3.72-2.14v-7.4h24.6v7.4Zm27.62 130.97c-3.5 0-6.77-1.03-9.79-3.08a32.3 32.3 0 0 1-7.69-7.26l-2.79 6.64h-3.43l-.52-48.69h3.47c.78 4.63 1.78 9.51 2.99 14.65 1.21 5.14 2.61 9.73 4.2 13.79a42.29 42.29 0 0 0 5.51 10.37c2.03 2.66 4.41 4 7.13 4 3.66 0 6.47-2.1 8.42-6.32 1.95-4.21 2.93-9.51 2.93-15.91 0-5.26-.83-9.67-2.48-13.25a24.42 24.42 0 0 0-7.69-9.28c-2.26-1.71-4.34-3.3-6.24-4.76a83.83 83.83 0 0 1-5.35-4.48c-3.85-3.61-6.71-8.77-8.58-15.49-1.87-6.71-2.81-14.22-2.81-22.52 0-5.26.48-10.31 1.45-15.16s2.38-9.2 4.24-13.07a26.2 26.2 0 0 1 6.83-8.84c2.77-2.28 5.79-3.42 9.05-3.42s6.15 1.04 8.93 3.13 4.95 4.18 6.54 6.26l2.46-5.69h3.51l.32 45.93h-3.47c-.81-4.95-1.76-10-2.85-15.17a103.62 103.62 0 0 0-3.45-12.89c-1.32-3.68-2.84-6.61-4.56-8.8-1.72-2.19-3.74-3.28-6.06-3.28-2.91 0-5.28 1.93-7.13 5.8-1.84 3.87-2.77 8.65-2.77 14.35 0 5.39.8 9.79 2.4 13.21 1.6 3.42 4.1 6.43 7.49 9.03 1.99 1.58 4.02 3.17 6.1 4.75a88.88 88.88 0 0 1 5.53 4.56c3.9 3.55 6.87 8.44 8.91 14.68 2.03 6.24 3.05 13.98 3.05 23.23 0 5.83-.58 11.47-1.74 16.92-1.16 5.45-2.72 9.98-4.69 13.59-2.15 3.99-4.65 7.06-7.47 9.22a15.91 15.91 0 0 1-9.9 3.23Zm82.92-99.84h-3.15a147.27 147.27 0 0 0-4.01-18.51c-1.84-6.58-3.54-10.12-5.1-10.63-.86-.25-1.92-.47-3.18-.66a22.44 22.44 0 0 0-3.26-.29h-1.89v105.63c0 2.28.17 4.29.53 6.03a7.82 7.82 0 0 0 2.06 4.13c.62.57 1.58 1.16 2.89 1.76 1.31.6 2.42 1.03 3.33 1.28v7.4h-31.95v-7.4l3.29-.81c1.41-.35 2.38-.77 2.89-1.28a7.6 7.6 0 0 0 2.1-4.08c.35-1.71.52-3.73.52-6.07V333.52h-1.89c-.91 0-2 .09-3.26.29-1.26.19-2.32.41-3.18.66-1.56.51-3.26 4.05-5.1 10.63a146.9 146.9 0 0 0-4.01 18.51h-3.15v-38.53h55.54v38.53Zm69.11 96.14h-21.99a1182.2 1182.2 0 0 0-9.46-32.65A796.28 796.28 0 0 0 603.7 399h-2.21v40.9c0 2.28.18 4.21.55 5.79a8.42 8.42 0 0 0 2.08 3.99 9.27 9.27 0 0 0 2.4 1.57c1.09.54 2.03.9 2.81 1.09v7.4h-30.57v-7.4c.78-.19 1.81-.46 3.09-.81a6.54 6.54 0 0 0 2.73-1.28 7.64 7.64 0 0 0 2.06-3.84c.35-1.55.52-3.53.52-5.93v-95c0-2.28-.15-4.18-.44-5.69a7.67 7.67 0 0 0-2.14-3.99 12.01 12.01 0 0 0-3.05-2.09 32.06 32.06 0 0 0-2.77-1.23v-7.4h32.15c7.19 0 12.65 2.64 16.38 7.92 3.73 5.28 5.59 13.27 5.59 23.96 0 9.43-1.15 17-3.45 22.73a28.84 28.84 0 0 1-10.52 13.43c1.83 5.57 3.96 12.02 6.4 19.36 2.44 7.34 4.97 14.84 7.61 22.49.83 2.47 1.97 5.49 3.41 9.06 1.44 3.58 2.71 5.77 3.82 6.6a9.1 9.1 0 0 0 2.36 1.14c.96.32 1.64.51 2.04.57v7.4Zm-27.51-100.13c0-8.98-1.07-15.55-3.21-19.69-2.14-4.14-5.19-6.22-9.15-6.22h-3.19v56.37h3.07c3.96 0 7.03-2.43 9.21-7.31 2.18-4.87 3.27-12.59 3.27-23.16Zm93.67-27.14c-.78.19-1.91.62-3.37 1.28a8.43 8.43 0 0 0-3.7 3.46c-1.02 1.58-1.74 4.43-2.16 8.54-.42 4.11-.63 10.28-.63 18.51v50.11c0 14.74-2.13 26.61-6.38 35.59-4.25 8.99-9.88 13.48-16.88 13.48-8.16 0-14.47-4.33-18.94-13-4.47-8.67-6.71-20.75-6.71-36.25v-68.9c0-2.21-.18-4.11-.54-5.69-.36-1.58-1.06-3-2.08-4.27a7.97 7.97 0 0 0-2.58-1.99 16.1 16.1 0 0 0-2.5-1.04v-7.21h30.05v7.21a11.59 11.59 0 0 0-5.33 2.28c-1.02.76-1.71 2.03-2.06 3.8a31 31 0 0 0-.53 5.98v67.95c0 13.35 1.25 23.06 3.75 29.13s6.13 9.11 10.89 9.11 8.35-3.35 11.01-10.06c2.66-6.71 3.99-16.58 3.99-29.61v-45.65c0-8.1-.24-14.16-.71-18.17-.47-4.02-1.19-6.91-2.16-8.68a10.17 10.17 0 0 0-3.66-3.8 22.53 22.53 0 0 0-3.66-2.09v-7.4h24.88v7.4Zm33 130.97c-4.2 0-8.13-1.6-11.79-4.8s-6.85-7.84-9.57-13.92c-2.67-5.96-4.77-13.32-6.3-22.09-1.54-8.77-2.3-18.42-2.3-28.94s.77-20.13 2.32-29.03c1.55-8.9 3.72-16.61 6.52-23.14 2.75-6.4 6.04-11.35 9.9-14.87 3.85-3.52 7.97-5.27 12.36-5.27 3.18 0 6.07.92 8.68 2.75a31.37 31.37 0 0 1 6.62 6.17l2.5-5.22h3.51l.36 49.16h-3.55c-2.02-15.03-4.44-26.06-7.26-33.1-2.82-7.04-6.27-10.56-10.33-10.56-5.06 0-8.9 5.25-11.54 15.73-2.63 10.49-3.95 25.21-3.95 44.15 0 10.71.45 19.85 1.35 27.42s2.08 13.67 3.53 18.3c1.56 4.82 3.4 8.35 5.53 10.6 2.12 2.25 4.48 3.37 7.06 3.37 3.76 0 7.12-2.4 10.07-7.21 2.95-4.81 5.63-12.08 8.05-21.83l3.47 4.94a130.71 130.71 0 0 1-3.96 14.95 55.51 55.51 0 0 1-5.13 11.34 29.36 29.36 0 0 1-7.05 8.16 14.6 14.6 0 0 1-9.11 2.94Zm82.39-99.84h-3.15a147.27 147.27 0 0 0-4.01-18.51c-1.84-6.58-3.54-10.12-5.1-10.63-.86-.25-1.92-.47-3.18-.66a22.44 22.44 0 0 0-3.26-.29h-1.89v105.63c0 2.28.17 4.29.52 6.03a7.82 7.82 0 0 0 2.06 4.13c.62.57 1.58 1.16 2.89 1.76 1.31.6 2.42 1.03 3.33 1.28v7.4h-31.95v-7.4l3.29-.81c1.41-.35 2.38-.77 2.89-1.28 1.05-1.01 1.75-2.37 2.1-4.08s.53-3.73.53-6.07V333.52h-1.89c-.91 0-2 .09-3.26.29-1.26.19-2.32.41-3.18.66-1.56.51-3.26 4.05-5.1 10.63a146.9 146.9 0 0 0-4.01 18.51h-3.15v-38.53h55.54v38.53Zm34.86 96.14h-31.79v-7.4l3.21-.57c1.41-.25 2.39-.63 2.93-1.14a7.3 7.3 0 0 0 2.04-3.75c.36-1.55.54-3.53.54-5.93v-95.47c0-2.15-.17-4.05-.52-5.69a7.8 7.8 0 0 0-2.06-3.99c-.65-.63-1.6-1.28-2.87-1.95a18.22 18.22 0 0 0-3.27-1.38v-7.4h31.79v7.4c-.81.19-1.82.46-3.03.81a9.33 9.33 0 0 0-3.07 1.47c-1.05.82-1.75 2.1-2.1 3.84a30.24 30.24 0 0 0-.53 5.93v95.38c0 2.28.18 4.22.54 5.84a7.81 7.81 0 0 0 2.08 3.94c.57.57 1.5 1.12 2.81 1.66 1.31.54 2.4.87 3.29 1v7.4Zm58.28-119.68c2.83 6.07 5.07 13.41 6.72 22.02 1.66 8.6 2.48 18.41 2.48 29.42 0 9.81-.7 19.14-2.1 28-1.4 8.86-3.42 16.48-6.06 22.87-2.77 6.64-6.03 11.82-9.77 15.52a18.36 18.36 0 0 1-13.37 5.55c-4.17 0-8.12-1.61-11.83-4.84s-6.99-7.91-9.81-14.05c-2.8-6.01-5.02-13.32-6.67-21.92-1.64-8.6-2.46-18.19-2.46-28.76s.8-20.99 2.4-29.94c1.6-8.95 3.8-16.62 6.6-23.01 2.77-6.26 6.06-11.09 9.88-14.47 3.81-3.38 7.87-5.08 12.18-5.08s8.3 1.65 12.06 4.93c3.76 3.29 7.01 7.88 9.75 13.76Zm-10.38 96.4a148.07 148.07 0 0 0 2.62-19.58c.54-7.29.81-15.53.81-24.71 0-7.79-.24-15.38-.71-22.76a154.25 154.25 0 0 0-2.4-19.72c-1.16-5.77-2.69-10.39-4.6-13.88-1.91-3.49-4.3-5.23-7.15-5.23-4.87 0-8.58 5.44-11.11 16.3-2.53 10.87-3.8 26.22-3.8 46.05 0 8.43.28 16.38.83 23.86.55 7.48 1.42 14 2.61 19.58 1.21 5.64 2.75 10.03 4.6 13.16 1.86 3.14 4.15 4.71 6.87 4.71s4.95-1.58 6.87-4.75c1.91-3.17 3.43-7.51 4.56-13.02Zm91.08-103.99c-.75.19-1.83.54-3.23 1.04-1.4.51-2.67 1.74-3.8 3.7-1 1.71-1.7 4.64-2.12 8.78-.42 4.14-.63 10.24-.63 18.27v96.23h-7.19l-35.71-104.11v63.21c0 7.85.22 13.81.67 17.89s1.17 7.07 2.16 8.97a10.27 10.27 0 0 0 3.47 3.7 21.69 21.69 0 0 0 3.8 2.18v7.4H932.7v-7.4c1.05-.19 2.25-.65 3.61-1.38a8.88 8.88 0 0 0 3.41-3.37c1.05-1.83 1.77-4.6 2.16-8.3.39-3.7.59-9.92.59-18.65v-63.77c0-3.16-.21-6.15-.63-8.97a28.7 28.7 0 0 0-1.96-7.26 16.73 16.73 0 0 0-3.25-5.08 13.74 13.74 0 0 0-4.18-2.89v-7.59h21.58l31.34 91.07V365.2c0-8.09-.23-14.12-.69-18.07-.46-3.95-1.18-6.88-2.18-8.78-.78-1.45-1.94-2.7-3.47-3.75s-2.77-1.76-3.72-2.14v-7.4h24.6v7.4Z"/>
    <g fill="currentColor">
        <path d="M702.71 159.5h38.84v153.72h-38.84z"/>
        <path d="M702.71 160.12h278.76v-.62L842.09 94.43 702.71 159.5v65.08-64.46z"/>
        <path d="M880.18 86.78h44.63v72.73h-44.63z"/>
    </g>
</svg>
